<svg xmlns="http://www.w3.org/2000/svg" viewBox="0 0 175 84.6" width="175" height="84"><g fill="#4D4D4F"><path d="M44.59 39.52h-4.97V.85H52.8c3.28 0 6.11 1.09 8.5 3.27 2.39 2.18 3.59 4.92 3.59 8.24 0 3.31-1.2 6.06-3.59 8.24-2.39 2.18-5.23 3.27-8.5 3.27h-8.21v15.65zm0-20.42h8.32c2.09 0 3.76-.7 5.02-2.11 1.26-1.4 1.89-2.95 1.89-4.64 0-1.69-.63-3.24-1.89-4.64C56.67 6.31 55 5.6 52.91 5.6h-8.32v13.5zM73.29 6.42c-.68.68-1.51 1.03-2.48 1.03s-1.8-.34-2.48-1.03c-.69-.69-1.03-1.52-1.03-2.49s.34-1.8 1.03-2.48C69.01.77 69.84.42 70.81.42s1.8.34 2.48 1.03c.68.68 1.03 1.51 1.03 2.48s-.35 1.8-1.03 2.49zm0 33.1h-4.97V13.06h4.97v26.46zM100.73 39.52H94.9l-6.53-9.77-6.43 9.77H76.1l9.34-13.45-9.13-13.01h5.62l6.53 9.34 6.21-9.34h5.83l-9.23 13.01 9.46 13.45zM114.22 40.38c-4 0-7.25-1.33-9.75-4-2.5-2.66-3.75-6.03-3.75-10.1 0-3.85 1.21-7.16 3.65-9.94 2.43-2.77 5.53-4.16 9.31-4.16 3.92 0 7.06 1.28 9.42 3.83 2.36 2.56 3.54 5.98 3.54 10.26l-.05.92h-20.9c.14 2.66 1.03 4.77 2.67 6.32 1.64 1.55 3.55 2.32 5.75 2.32 3.56 0 5.98-1.51 7.24-4.54l4.43 1.84c-.86 2.05-2.29 3.77-4.27 5.16-1.98 1.4-4.41 2.09-7.29 2.09zm7.13-17.28c-.11-1.51-.8-2.95-2.08-4.32s-3.18-2.05-5.7-2.05c-1.84 0-3.43.58-4.78 1.73s-2.28 2.7-2.78 4.64h15.34zM135.38 39.52h-4.97V.85h4.97v38.67z"/></g><g fill="#4D4D4F"><path d="M108.11 78.56c-5.36 0-9.86-4.36-9.86-9.72s4.51-9.72 9.86-9.72c2.96 0 5.07 1.16 6.66 2.68l-1.87 1.87c-1.14-1.07-2.68-1.9-4.79-1.9-3.91 0-6.97 3.15-6.97 7.06s3.06 7.06 6.97 7.06c2.54 0 3.98-1.02 4.91-1.94.76-.76 1.26-1.85 1.45-3.34h-6.33v-2.66h8.91c.1.48.14 1.04.14 1.66 0 1.99-.55 4.46-2.3 6.21-1.71 1.79-3.89 2.74-6.78 2.74M127.82 72.3c0-2.25-1.63-3.79-3.52-3.79-1.89 0-3.52 1.54-3.52 3.79 0 2.23 1.63 3.79 3.52 3.79 1.89 0 3.52-1.56 3.52-3.79m2.74 0c0 3.6-2.81 6.26-6.26 6.26-3.45 0-6.26-2.66-6.26-6.26 0-3.63 2.81-6.26 6.26-6.26 3.45 0 6.26 2.63 6.26 6.26M141.57 72.3c0-2.25-1.64-3.79-3.53-3.79-1.9 0-3.53 1.54-3.53 3.79 0 2.23 1.64 3.79 3.53 3.79s3.53-1.56 3.53-3.79m2.75 0c0 3.6-2.82 6.26-6.28 6.26s-6.28-2.66-6.28-6.26c0-3.63 2.82-6.26 6.28-6.26s6.28 2.63 6.28 6.26M155.02 72.33c0-2.21-1.47-3.82-3.34-3.82-1.9 0-3.48 1.61-3.48 3.82 0 2.18 1.59 3.77 3.48 3.77 1.87-.01 3.34-1.59 3.34-3.77m2.41-5.91v11.24c0 4.62-2.73 6.52-5.95 6.52-3.04 0-4.86-2.04-5.55-3.7l2.39-.99c.43 1.02 1.47 2.23 3.15 2.23 2.06 0 3.34-1.28 3.34-3.68v-.9h-.1c-.62.76-1.8 1.42-3.3 1.42-3.13 0-5.99-2.73-5.99-6.23 0-3.53 2.86-6.28 5.99-6.28 1.5 0 2.68.67 3.3 1.4h.1v-1.02h2.62z"/></g><path fill="#4D4D4F" d="M159.12 59.86h2.73v18.32h-2.73zM165.82 72.11l5.6-2.32c-.31-.78-1.23-1.33-2.32-1.33-1.41 0-3.35 1.23-3.28 3.65m6.57 2.25l2.13 1.42c-.69 1.02-2.35 2.77-5.21 2.77-3.56 0-6.21-2.75-6.21-6.26 0-3.72 2.68-6.26 5.9-6.26 3.25 0 4.84 2.58 5.36 3.98l.28.71-8.37 3.46c.64 1.26 1.64 1.9 3.03 1.9s2.37-.67 3.09-1.72"/><g fill="#4D4D4F"><path d="M2.57 78.18H.36V61h5.85c1.46 0 2.72.48 3.78 1.45 1.06.97 1.6 2.19 1.6 3.66 0 1.47-.53 2.69-1.6 3.66-1.06.97-2.32 1.45-3.78 1.45H2.57v6.96zm0-9.07h3.7c.93 0 1.67-.31 2.23-.94.56-.62.84-1.31.84-2.06s-.28-1.44-.84-2.06c-.56-.62-1.3-.94-2.23-.94h-3.7v6zM15.23 61v5.42l-.1 1.63h.1c.32-.56.82-1.04 1.51-1.43.69-.39 1.42-.59 2.21-.59 1.46 0 2.57.45 3.34 1.34.77.9 1.15 2.1 1.15 3.6v7.2h-2.21v-6.86c0-2.18-.97-3.26-2.9-3.26-.91 0-1.66.36-2.23 1.09-.58.73-.86 1.57-.86 2.53v6.5h-2.21V61h2.2zM26.73 67.83c1.14-1.19 2.58-1.79 4.34-1.79 1.76 0 3.21.6 4.34 1.79 1.14 1.19 1.7 2.68 1.7 4.47 0 1.79-.57 3.28-1.7 4.48-1.14 1.19-2.58 1.79-4.34 1.79-1.76 0-3.21-.6-4.34-1.79-1.14-1.19-1.7-2.68-1.7-4.48 0-1.79.57-3.28 1.7-4.47zm1.65 7.56c.76.78 1.66 1.16 2.7 1.16 1.04 0 1.94-.39 2.7-1.16.76-.78 1.14-1.8 1.14-3.08s-.38-2.31-1.14-3.08c-.76-.78-1.66-1.16-2.7-1.16-1.04 0-1.94.39-2.7 1.16-.76.78-1.14 1.8-1.14 3.08 0 1.27.38 2.3 1.14 3.08zM40.91 66.42v1.63h.1c.32-.56.82-1.04 1.51-1.43.69-.39 1.42-.59 2.21-.59 1.46 0 2.57.45 3.34 1.34.77.9 1.15 2.1 1.15 3.6v7.2H47v-6.86c0-2.18-.97-3.26-2.9-3.26-.91 0-1.66.36-2.23 1.09-.58.73-.86 1.57-.86 2.53v6.5H38.8V66.42h2.11zM56.8 78.56c-1.78 0-3.22-.59-4.33-1.78-1.11-1.18-1.67-2.68-1.67-4.49 0-1.71.54-3.18 1.62-4.42 1.08-1.23 2.46-1.85 4.14-1.85 1.74 0 3.14.57 4.19 1.7 1.05 1.14 1.57 2.66 1.57 4.56l-.02.41h-9.29c.06 1.18.46 2.12 1.19 2.81s1.58 1.03 2.56 1.03c1.58 0 2.66-.67 3.22-2.02l1.97.82c-.38.91-1.02 1.68-1.9 2.29-.89.64-1.97.94-3.25.94zm3.17-7.67c-.05-.67-.36-1.31-.92-1.92-.57-.61-1.41-.91-2.53-.91-.82 0-1.52.26-2.12.77s-1.01 1.2-1.24 2.06h6.81z"/></g><g fill="#4D4D4F"><path d="M75.83 78.56c-.9 0-1.7-.19-2.41-.58-.71-.38-1.24-.86-1.6-1.44h-.1v1.63h-2.11V61h2.21v5.42l-.1 1.63h.1c.35-.58.88-1.06 1.6-1.44.71-.38 1.52-.58 2.41-.58 1.52 0 2.83.6 3.94 1.8 1.1 1.2 1.66 2.69 1.66 4.46 0 1.78-.55 3.26-1.66 4.46-1.11 1.21-2.42 1.81-3.94 1.81zm-.36-2.01c1.02 0 1.9-.39 2.64-1.16.74-.78 1.1-1.8 1.1-3.08s-.37-2.31-1.1-3.08c-.74-.78-1.62-1.16-2.64-1.16-1.04 0-1.92.38-2.65 1.15-.73.77-1.09 1.8-1.09 3.1s.36 2.33 1.09 3.1c.72.74 1.61 1.13 2.65 1.13zM85.71 83.36h-2.28l2.74-5.93-4.85-11.01h2.4l3.5 8.45h.05l3.41-8.45h2.4l-7.37 16.94z"/></g></svg>
